<?xml version="1.0" standalone="no"?>
<!DOCTYPE svg PUBLIC "-//W3C//DTD SVG 20010904//EN"
 "http://www.w3.org/TR/2001/REC-SVG-20010904/DTD/svg10.dtd">
<svg version="1.0" xmlns="http://www.w3.org/2000/svg"
 width="1920.000000pt" height="1920.000000pt" viewBox="0 0 1920.000000 1920.000000"
 preserveAspectRatio="xMidYMid meet">

<g transform="translate(0.000000,1920.000000) scale(0.100000,-0.100000)"
fill="#000000" stroke="none">
<path d="M6474 13331 c-51 -13 -98 -47 -122 -89 l-22 -40 0 -591 0 -591 -592
0 c-387 0 -606 -4 -631 -11 -52 -14 -114 -72 -127 -117 -6 -25 -10 -1013 -10
-2957 0 -2830 1 -2921 19 -2961 10 -23 36 -54 57 -70 l37 -29 3811 -3 c2096
-1 3826 0 3844 3 34 6 94 53 115 89 9 15 13 147 17 481 l5 460 621 5 621 5 37
29 c21 16 47 47 57 70 18 40 19 134 19 3104 0 2742 -2 3067 -15 3100 -19 44
-49 78 -90 100 -28 16 -314 17 -3825 19 -2087 0 -3809 -2 -3826 -6z m7386
-3206 l0 -2845 -495 0 -495 0 0 2300 c0 2272 0 2301 -20 2340 -23 45 -60 73
-115 89 -29 8 -875 11 -3037 11 l-2998 0 0 475 0 475 3580 0 3580 0 0 -2845z
m-1360 -1180 l0 -2705 -3580 0 -3580 0 0 2705 0 2705 3580 0 3580 0 0 -2705z"/>
<path d="M8878 10730 c-50 -15 -93 -48 -116 -88 l-22 -40 0 -736 0 -735 -737
-3 -738 -3 -45 -27 c-102 -59 -122 -197 -42 -281 15 -16 36 -34 47 -40 15 -9
225 -13 765 -17 l745 -5 5 -745 c4 -540 8 -750 17 -765 14 -26 62 -69 90 -84
61 -31 180 -1 221 56 41 57 42 82 42 825 l0 718 748 2 749 3 37 29 c43 32 75
95 76 144 0 65 -44 137 -105 170 -27 15 -103 17 -767 20 l-737 3 -3 739 -3
738 -30 43 c-46 64 -133 100 -197 79z"/>
</g>
</svg>
