<?xml version="1.0" standalone="no"?>
<!DOCTYPE svg PUBLIC "-//W3C//DTD SVG 20010904//EN"
 "http://www.w3.org/TR/2001/REC-SVG-20010904/DTD/svg10.dtd">
<svg version="1.0" xmlns="http://www.w3.org/2000/svg"
 width="1280.000000pt" height="1280.000000pt" viewBox="0 0 1280.000000 1280.000000"
 preserveAspectRatio="xMidYMid meet">

<g transform="translate(0.000000,1280.000000) scale(0.100000,-0.100000)"
fill="#000000" stroke="none">
<path d="M5460 9480 c-456 -48 -861 -206 -1220 -476 -420 -317 -732 -794 -861
-1318 -48 -198 -63 -328 -63 -556 0 -382 73 -698 239 -1035 191 -388 455 -689
818 -932 129 -87 367 -205 513 -256 299 -105 652 -152 944 -128 395 33 720
135 1045 326 98 57 314 215 349 254 l20 22 163 -163 163 -162 -114 -116 c-66
-67 -117 -127 -121 -143 -18 -71 -34 -54 698 -784 380 -380 703 -694 715 -698
13 -4 40 -4 60 0 32 6 82 52 353 323 331 331 339 342 324 410 -4 20 -210 232
-703 725 -677 677 -698 697 -735 697 -56 0 -81 -17 -197 -134 l-105 -106 -162
162 -162 162 35 38 c62 69 183 238 240 335 316 536 409 1162 263 1762 -43 174
-90 303 -174 476 -231 475 -601 846 -1080 1081 -227 111 -458 183 -706 219
-128 19 -424 27 -539 15z m520 -266 c343 -51 675 -190 958 -401 95 -71 284
-253 364 -350 237 -290 395 -649 454 -1033 23 -154 23 -433 0 -594 -67 -467
-278 -880 -618 -1212 -325 -317 -716 -511 -1168 -580 -156 -23 -444 -23 -600
0 -449 68 -833 257 -1154 566 -189 182 -313 349 -424 568 -155 305 -225 601
-225 952 0 351 70 647 225 953 338 666 985 1093 1743 1151 89 7 337 -4 445
-20z m3002 -5396 l-202 -203 -575 575 -575 575 202 202 203 203 575 -575 575
-575 -203 -202z"/>
<path d="M4504 8356 c-38 -17 -168 -166 -247 -284 -400 -596 -377 -1386 58
-1964 97 -128 175 -205 217 -213 74 -14 148 48 148 125 0 41 -13 63 -91 147
-255 275 -400 714 -360 1090 35 337 146 590 371 851 69 80 80 98 80 130 0 46
-30 96 -69 117 -36 18 -66 19 -107 1z"/>
<path d="M4843 5893 c-34 -7 -81 -59 -89 -99 -8 -43 9 -87 48 -119 23 -19 41
-25 80 -25 44 0 54 4 84 34 30 30 34 41 34 84 0 58 -25 97 -76 118 -34 14 -41
15 -81 7z"/>
</g>
</svg>
