<?xml version="1.0" standalone="no"?>
<!DOCTYPE svg PUBLIC "-//W3C//DTD SVG 20010904//EN"
 "http://www.w3.org/TR/2001/REC-SVG-20010904/DTD/svg10.dtd">
<svg version="1.0" xmlns="http://www.w3.org/2000/svg"
 width="26.000000pt" height="32.000000pt" viewBox="0 0 26.000000 32.000000"
 preserveAspectRatio="xMidYMid meet">

<g transform="translate(0.000000,32.000000) scale(0.100000,-0.100000)"
fill="#000000" stroke="none">
<path d="M85 310 c-3 -5 -21 -10 -40 -10 l-33 0 5 -107 c6 -155 10 -172 39
-183 40 -16 137 -12 162 6 20 14 22 23 22 124 0 62 4 111 10 115 6 3 10 15 10
26 0 16 -7 19 -39 19 -22 0 -43 5 -46 10 -8 13 -82 13 -90 0z m103 -16 c89
-11 57 -24 -60 -24 -136 0 -140 15 -8 28 8 1 39 -1 68 -4z m30 -156 l-3 -113
-85 0 -85 0 -3 113 -3 112 91 0 91 0 -3 -112z"/>
<path d="M70 141 c0 -44 5 -83 10 -86 6 -4 10 25 10 79 0 51 -4 86 -10 86 -6
0 -10 -33 -10 -79z"/>
<path d="M170 141 c0 -44 5 -83 10 -86 6 -4 10 25 10 79 0 51 -4 86 -10 86 -6
0 -10 -33 -10 -79z"/>
</g>
</svg>
