<?xml version="1.0" standalone="no"?>
<!DOCTYPE svg PUBLIC "-//W3C//DTD SVG 20010904//EN"
 "http://www.w3.org/TR/2001/REC-SVG-20010904/DTD/svg10.dtd">
<svg version="1.0" xmlns="http://www.w3.org/2000/svg"
 width="80.000000pt" height="80.000000pt" viewBox="0 0 80.000000 80.000000"
 preserveAspectRatio="xMidYMid meet">

<g transform="translate(0.000000,80.000000) scale(0.100000,-0.100000)"
fill="#000000" stroke="none">
<path d="M327 650 c-14 -11 -30 -20 -36 -20 -19 0 -60 -73 -76 -135 -31 -122
-13 -197 50 -209 63 -12 69 8 29 91 -15 29 -30 56 -35 59 -5 3 -9 19 -9 35 0
18 4 28 10 24 6 -4 10 5 10 20 0 14 11 37 25 51 l25 25 33 -24 c17 -14 56 -32
84 -42 29 -9 55 -21 59 -26 3 -5 10 -7 15 -4 15 10 21 -20 9 -46 -6 -13 -22
-44 -35 -69 -28 -54 -30 -69 -10 -106 19 -36 20 -105 3 -102 -8 2 -14 -9 -16
-27 -2 -16 -10 -54 -18 -84 -8 -29 -13 -55 -11 -57 6 -7 116 25 157 46 54 28
126 104 159 170 53 105 60 88 -120 266 -88 88 -170 164 -182 171 -34 19 -91
16 -120 -7z"/>
<path d="M233 252 c-67 -15 -80 -27 -103 -96 -12 -38 -12 -40 16 -63 60 -49
223 -110 210 -80 -2 7 -12 47 -22 89 -9 42 -21 75 -25 72 -4 -2 -9 17 -11 43
l-3 48 -62 -13z"/>
</g>
</svg>
