<?xml version="1.0" standalone="no"?>
<!DOCTYPE svg PUBLIC "-//W3C//DTD SVG 20010904//EN"
 "http://www.w3.org/TR/2001/REC-SVG-20010904/DTD/svg10.dtd">
<svg version="1.0" xmlns="http://www.w3.org/2000/svg"
 width="1920.000000pt" height="1920.000000pt" viewBox="0 0 1920.000000 1920.000000"
 preserveAspectRatio="xMidYMid meet">

<g transform="translate(0.000000,1920.000000) scale(0.100000,-0.100000)"
fill="#000000" stroke="none">
<path d="M4640 14214 c-45 -20 -68 -41 -91 -86 -19 -36 -19 -141 -19 -4528 0
-4387 0 -4492 19 -4528 23 -46 46 -67 94 -87 33 -13 551 -15 4959 -15 4765 0
4924 1 4963 19 46 21 79 54 94 94 8 20 11 1238 11 4093 0 3728 -1 4068 -16
4097 -22 43 -43 66 -79 86 -28 15 -283 16 -3235 21 l-3205 5 -152 250 c-348
571 -324 535 -373 564 l-45 26 -1445 2 c-1272 2 -1449 1 -1480 -13z m3009
-739 c129 -212 246 -397 260 -412 57 -57 -171 -53 3241 -53 l3150 0 0 -275 0
-275 -4700 0 -4700 0 0 700 0 700 1258 0 1257 0 234 -385z m6651 -4760 l0
-3375 -4700 0 -4700 0 0 3375 0 3375 4700 0 4700 0 0 -3375z"/>
</g>
</svg>
