<?xml version="1.0" standalone="no"?>
<!DOCTYPE svg PUBLIC "-//W3C//DTD SVG 20010904//EN"
 "http://www.w3.org/TR/2001/REC-SVG-20010904/DTD/svg10.dtd">
<svg version="1.0" xmlns="http://www.w3.org/2000/svg"
 width="1920.000000pt" height="1920.000000pt" viewBox="0 0 1920.000000 1920.000000"
 preserveAspectRatio="xMidYMid meet">

<g transform="translate(0.000000,1920.000000) scale(0.100000,-0.100000)"
fill="#000000" stroke="none">
<path d="M5135 13045 c-5 -2 -22 -6 -37 -9 -39 -9 -88 -54 -109 -101 -18 -39
-19 -160 -19 -3333 0 -2950 2 -3297 15 -3330 19 -44 49 -78 90 -100 28 -16
301 -17 3619 -20 2519 -1 3600 1 3628 9 22 5 55 25 74 42 31 29 120 250 931
2317 492 1257 898 2303 900 2326 7 55 -24 123 -73 160 l-37 29 -829 3 -828 2
0 525 c0 450 -2 531 -15 562 -19 45 -41 70 -80 92 -28 15 -210 16 -2210 21
l-2180 5 -5 340 c-5 328 -6 341 -27 375 -12 20 -41 47 -65 60 l-43 25 -1345 2
c-740 1 -1349 0 -1355 -2z m2465 -682 c0 -201 4 -333 11 -358 14 -51 73 -110
124 -124 29 -8 654 -11 2198 -11 l2157 0 -2 -412 -3 -413 -2616 -5 -2616 -5
-36 -28 c-20 -15 -41 -36 -46 -45 -5 -10 -327 -830 -716 -1822 -388 -993 -708
-1806 -711 -1809 -2 -2 -4 1200 -4 2672 l0 2677 1130 0 1130 0 0 -317z m4488
-3765 l2 -2078 -3331 0 c-3168 0 -3331 1 -3325 18 43 118 1612 4120 1619 4130
8 9 519 12 2521 10 l2511 -3 3 -2077z m1680 2065 c-5 -16 -1238 -3170 -1287
-3288 l-20 -50 0 1678 -1 1677 656 0 c620 0 656 -1 652 -17z"/>
</g>
</svg>
