<?xml version="1.0" standalone="no"?>
<!DOCTYPE svg PUBLIC "-//W3C//DTD SVG 20010904//EN"
 "http://www.w3.org/TR/2001/REC-SVG-20010904/DTD/svg10.dtd">
<svg version="1.0" xmlns="http://www.w3.org/2000/svg"
 width="1920.000000pt" height="1920.000000pt" viewBox="0 0 1920.000000 1920.000000"
 preserveAspectRatio="xMidYMid meet">

<g transform="translate(0.000000,1920.000000) scale(0.100000,-0.100000)"
fill="#000000" stroke="none">
<path d="M5513 13040 c-44 -10 -76 -33 -110 -77 l-28 -36 0 -3328 0 -3327 31
-39 c17 -21 46 -47 65 -58 34 -20 52 -20 2279 -20 l2245 0 40 23 c73 42 107
120 91 207 -8 43 -59 103 -103 121 -27 12 -395 14 -2158 14 l-2125 0 0 2675 0
2675 3375 0 3375 0 0 -1463 0 -1463 29 -45 c63 -101 197 -115 282 -30 21 21
42 54 48 78 8 29 11 483 9 1600 l-3 1558 -22 42 c-15 26 -39 52 -66 68 l-44
25 -2176 0 -2177 0 0 329 c0 209 -4 340 -11 358 -13 35 -54 79 -94 101 -27 16
-142 17 -1375 19 -740 0 -1360 -2 -1377 -7z m2487 -580 l0 -220 -1130 0 -1130
0 0 220 0 220 1130 0 1130 0 0 -220z"/>
<path d="M11612 8449 c-26 -13 -55 -39 -70 -62 l-27 -41 -3 -422 -3 -423 -423
-3 -422 -3 -41 -27 c-24 -16 -49 -44 -62 -70 -21 -43 -21 -55 -21 -571 0 -347
4 -535 11 -554 13 -35 54 -79 94 -101 26 -15 81 -17 448 -20 l417 -3 0 -403
c0 -273 4 -414 11 -437 16 -47 73 -104 118 -118 27 -7 196 -11 552 -11 477 0
517 2 554 19 50 22 91 69 105 119 6 23 10 192 10 434 l0 397 418 3 c469 3 451
0 516 81 l31 39 3 540 c2 535 2 541 -19 585 -13 27 -37 55 -62 71 l-41 27
-422 3 -423 3 -3 417 -3 417 -27 47 c-19 32 -41 52 -71 67 -42 21 -56 21 -573
21 -521 0 -530 0 -572 -21z m878 -764 c0 -388 1 -418 19 -453 23 -46 46 -67
94 -87 31 -13 100 -15 447 -15 l410 0 0 -305 0 -305 -415 0 c-331 0 -422 -3
-448 -14 -39 -16 -82 -61 -96 -99 -7 -18 -11 -174 -11 -443 l0 -414 -305 0
-305 0 0 414 c0 269 -4 425 -11 443 -14 38 -57 83 -96 99 -26 11 -117 14 -448
14 l-415 0 0 305 0 305 410 0 c347 0 416 2 447 15 48 20 71 41 94 87 18 35 19
65 19 453 l0 415 305 0 305 0 0 -415z"/>
</g>
</svg>
