<?xml version="1.0" encoding="UTF-8" standalone="no"?>
<svg
   version="1.0"
   width="720.000000pt"
   height="720.000000pt"
   viewBox="0 0 720.000000 720.000000"
   preserveAspectRatio="xMidYMid meet"
   id="svg6"
   sodipodi:docname="GroupBlue.svg"
   xmlns:inkscape="http://www.inkscape.org/namespaces/inkscape"
   xmlns:sodipodi="http://sodipodi.sourceforge.net/DTD/sodipodi-0.dtd"
   xmlns="http://www.w3.org/2000/svg"
   xmlns:svg="http://www.w3.org/2000/svg">
  <defs
     id="defs10" />
  <sodipodi:namedview
     id="namedview8"
     pagecolor="#ffffff"
     bordercolor="#666666"
     borderopacity="1.0"
     inkscape:pageshadow="2"
     inkscape:pageopacity="0.0"
     inkscape:pagecheckerboard="0"
     inkscape:document-units="pt"
     showgrid="false" />
  <g
     transform="translate(0.000000,720.000000) scale(0.100000,-0.100000)"
     fill="#000000"
     stroke="none"
     id="g4">
    <path
       d="m 3755,2265.5198 c 173,34 331,152 412,310 73,141 88,211 87,419 0,163 -3,189 -27,280 -49,181 -145,346 -247,422 -44,33 -50,42 -50,73 v 37 l 101,28 c 87,24 104,26 127,15 15,-7 77,-29 137,-49 l 111,-37 -34,-34 c -131,-134 -161,-420 -63,-595 37,-67 116,-130 187,-151 87,-25 223,-16 292,20 162,83 234,277 187,501 -19,88 -63,180 -109,224 l -36,35 116,37 c 268,89 357,177 384,383 15,115 13,160 -11,190 l -20,26 h -200 c -109,0 -199,3 -199,6 0,3 7,32 15,63 17,65 35,251 35,359 0,64 -3,76 -25,97 l -24,25 H 3600 2299 l -24,-25 c -22,-21 -25,-33 -25,-97 0,-108 18,-294 35,-359 8,-31 15,-60 15,-63 0,-3 -90,-6 -199,-6 h -200 l -20,-26 c -24,-30 -26,-75 -11,-190 26,-205 117,-295 384,-383 l 116,-37 -36,-35 c -46,-44 -90,-136 -109,-224 -47,-224 25,-418 187,-501 42,-22 71,-28 140,-32 107,-5 166,8 236,54 101,66 152,170 159,324 8,152 -37,296 -120,381 l -35,36 77,22 c 42,12 104,34 139,48 l 64,25 99,-28 99,-27 v -37 c 0,-31 -6,-40 -50,-73 -102,-76 -198,-241 -247,-422 -24,-91 -27,-117 -27,-280 -1,-208 14,-278 87,-419 129,-249 414,-371 722,-310 z m -339,155 c -204,69 -318,247 -333,520 -16,291 96,576 264,671 29,16 58,39 64,50 17,32 8,224 -12,243 -9,9 -92,38 -185,65 -238,69 -363,113 -483,172 -237,116 -317,256 -334,580 l -5,88 h 1209 1208 l -5,-88 c -27,-447 -150,-559 -818,-752 -93,-27 -176,-56 -185,-65 -19,-19 -29,-194 -13,-236 7,-16 32,-38 65,-57 239,-135 346,-642 200,-950 -67,-143 -195,-237 -354,-262 -77,-12 -214,-2 -283,21 z m 1076,722 c -27,17 -52,46 -69,80 -25,47 -28,62 -27,157 0,154 30,221 133,298 29,22 31,27 31,92 0,89 -12,104 -118,134 -46,13 -85,26 -88,28 -2,2 37,21 88,41 142,59 224,111 316,204 l 83,83 h 176 176 l -6,-60 c -13,-152 -74,-200 -356,-286 -63,-19 -124,-42 -133,-51 -14,-13 -18,-32 -18,-90 0,-61 3,-76 21,-91 115,-97 142,-154 143,-302 1,-85 -2,-101 -27,-152 -44,-89 -99,-119 -213,-115 -58,2 -78,7 -112,30 z m -2026,-8 c -106,51 -145,239 -84,403 19,52 46,85 119,146 27,23 28,155 1,179 -9,9 -70,32 -133,51 -282,86 -343,134 -356,286 l -6,60 h 176 176 l 83,-83 c 92,-93 174,-145 316,-204 51,-20 90,-39 88,-41 -3,-2 -42,-15 -88,-28 -106,-30 -118,-45 -118,-134 0,-65 2,-70 31,-92 103,-77 133,-144 133,-298 1,-95 -2,-110 -26,-157 -27,-50 -61,-82 -109,-103 -37,-15 -159,-7 -203,15 z"
       id="path2" />
  </g>
</svg>
