<?xml version="1.0" standalone="no"?>
<!DOCTYPE svg PUBLIC "-//W3C//DTD SVG 20010904//EN"
 "http://www.w3.org/TR/2001/REC-SVG-20010904/DTD/svg10.dtd">
<svg version="1.0" xmlns="http://www.w3.org/2000/svg"
 width="1920.000000pt" height="1920.000000pt" viewBox="0 0 1920.000000 1920.000000"
 preserveAspectRatio="xMidYMid meet">

<g transform="translate(0.000000,1920.000000) scale(0.100000,-0.100000)"
fill="#000000" stroke="none">
<path d="M9445 14043 c-11 -2 -32 -9 -48 -15 -30 -11 -4317 -4421 -4348 -4473
-23 -36 -25 -112 -5 -158 17 -42 66 -83 114 -97 24 -6 284 -10 730 -10 l692 0
0 -2000 c0 -1973 0 -2001 20 -2040 24 -47 62 -75 121 -90 31 -8 865 -10 2909
-8 2706 3 2867 4 2897 20 18 10 45 35 60 55 l28 36 3 2014 2 2013 693 0 c445
0 705 4 729 10 48 14 97 55 114 97 18 43 18 117 -1 154 -19 35 -4565 4453
-4603 4473 -32 16 -80 24 -107 19z m2074 -2413 l2034 -1975 -579 -5 c-465 -4
-584 -8 -604 -19 -33 -18 -69 -51 -83 -76 -9 -15 -13 -533 -17 -2030 l-5
-2010 -792 -3 -793 -2 0 1278 c0 926 -3 1288 -11 1313 -16 47 -73 104 -118
118 -50 15 -1825 15 -1890 0 -58 -13 -97 -42 -121 -89 -20 -38 -20 -64 -20
-1330 l0 -1290 -792 2 -793 3 -5 2010 c-4 1497 -8 2015 -17 2030 -14 25 -50
58 -83 76 -20 11 -140 15 -612 19 l-588 5 1918 1977 c1054 1088 1922 1976
1928 1975 6 -1 925 -891 2043 -1977z m-1199 -4152 c0 -216 3 -747 7 -1180 l6
-788 -731 0 -732 0 0 1180 0 1180 725 0 725 0 0 -392z"/>
</g>
</svg>
