<?xml version="1.0" standalone="no"?>
<!DOCTYPE svg PUBLIC "-//W3C//DTD SVG 20010904//EN"
 "http://www.w3.org/TR/2001/REC-SVG-20010904/DTD/svg10.dtd">
<svg version="1.0" xmlns="http://www.w3.org/2000/svg"
 width="1920.000000pt" height="1920.000000pt" viewBox="0 0 1920.000000 1920.000000"
 preserveAspectRatio="xMidYMid meet">

<g transform="translate(0.000000,1920.000000) scale(0.100000,-0.100000)"
fill="#000000" stroke="none">
<path d="M9330 14223 c-940 -67 -1753 -363 -2490 -906 -330 -244 -695 -606
-947 -942 -834 -1112 -1123 -2552 -783 -3905 170 -678 479 -1284 939 -1840
121 -147 433 -458 581 -581 686 -569 1499 -926 2360 -1038 1857 -242 3648 632
4605 2249 96 163 245 467 314 644 476 1218 421 2570 -152 3732 -229 462 -490
832 -847 1198 -882 905 -2079 1405 -3335 1394 -110 -1 -220 -3 -245 -5z m709
-388 c493 -51 963 -185 1410 -401 203 -98 302 -154 506 -289 972 -643 1646
-1676 1840 -2817 45 -267 58 -433 58 -728 0 -295 -13 -461 -58 -728 -193
-1140 -869 -2174 -1840 -2817 -204 -135 -303 -191 -506 -289 -590 -285 -1181
-419 -1849 -419 -471 0 -875 62 -1301 198 -1404 452 -2481 1607 -2834 3040
-84 338 -118 636 -118 1015 0 379 34 677 118 1015 302 1227 1129 2251 2270
2812 491 241 1040 386 1601 423 170 11 521 4 703 -15z"/>
<path d="M8845 12651 c-40 -24 -71 -60 -84 -94 -8 -19 -11 -260 -11 -738 0
-692 0 -711 20 -749 11 -22 39 -52 62 -67 l42 -28 726 0 726 0 42 28 c23 15
51 45 62 67 20 38 20 57 20 749 0 477 -3 719 -11 738 -13 34 -55 80 -91 99
-23 12 -147 14 -750 14 -688 0 -724 -1 -753 -19z m1235 -831 l0 -480 -480 0
-480 0 0 480 0 480 480 0 480 0 0 -480z"/>
<path d="M8915 10675 c-5 -2 -22 -6 -37 -9 -37 -8 -98 -63 -114 -103 -12 -27
-14 -364 -14 -1962 0 -1339 3 -1938 11 -1958 14 -38 57 -83 96 -99 49 -21
1451 -21 1491 0 36 19 78 65 91 99 15 40 15 3874 0 3914 -13 35 -54 79 -94
101 -27 15 -98 17 -725 19 -382 1 -699 0 -705 -2z m1165 -2075 l0 -1700 -480
0 -480 0 0 1700 0 1700 480 0 480 0 0 -1700z"/>
</g>
</svg>
