<?xml version="1.0" standalone="no"?>
<!DOCTYPE svg PUBLIC "-//W3C//DTD SVG 20010904//EN"
 "http://www.w3.org/TR/2001/REC-SVG-20010904/DTD/svg10.dtd">
<svg version="1.0" xmlns="http://www.w3.org/2000/svg"
 width="80.000000pt" height="80.000000pt" viewBox="0 0 80.000000 80.000000"
 preserveAspectRatio="xMidYMid meet">

<g transform="translate(0.000000,80.000000) scale(0.100000,-0.100000)"
fill="#000000" stroke="none">
<path d="M351 793 c-27 -4 -60 -31 -184 -154 -131 -131 -151 -155 -158 -192
-24 -122 50 -293 160 -369 53 -37 155 -77 166 -66 3 3 -8 52 -25 109 -24 82
-30 114 -24 152 6 51 -5 93 -38 136 -22 29 -25 86 -4 78 10 -4 16 5 20 28 4
18 15 44 26 57 l19 23 43 -25 c33 -19 58 -24 108 -25 l65 0 3 -32 c2 -23 7
-30 18 -26 21 8 28 -22 11 -54 -50 -93 -58 -118 -52 -163 4 -33 -1 -68 -21
-135 -14 -50 -29 -99 -32 -109 -5 -17 -1 -18 32 -13 96 15 199 88 253 178 94
157 77 339 -45 470 -66 71 -143 114 -233 129 -35 5 -66 9 -69 8 -3 -1 -20 -3
-39 -5z"/>
<path d="M350 160 c-9 -16 -8 -20 5 -20 12 0 15 -14 15 -70 0 -62 2 -70 19
-70 42 0 49 9 40 53 -12 64 -11 87 6 87 8 0 15 4 15 8 0 35 -83 45 -100 12z"/>
</g>
</svg>
