<?xml version="1.0" standalone="no"?>
<!DOCTYPE svg PUBLIC "-//W3C//DTD SVG 20010904//EN"
 "http://www.w3.org/TR/2001/REC-SVG-20010904/DTD/svg10.dtd">
<svg version="1.0" xmlns="http://www.w3.org/2000/svg"
 width="40.000000pt" height="40.000000pt" viewBox="0 0 40.000000 40.000000"
 preserveAspectRatio="xMidYMid meet">

<g transform="translate(0.000000,40.000000) scale(0.100000,-0.100000)"
fill="#000000" stroke="none">
<path d="M156 345 c-13 -14 -32 -25 -42 -25 -11 0 -30 -7 -42 -16 -21 -14 -22
-23 -22 -129 0 -144 1 -145 140 -145 139 0 140 1 140 145 0 106 -1 115 -22
129 -12 9 -30 16 -40 16 -9 0 -28 11 -42 25 -14 14 -30 25 -36 25 -6 0 -21
-11 -34 -25z m62 -12 c2 -9 -7 -13 -27 -13 -30 0 -39 9 -24 24 11 10 46 3 51
-11z m-98 -58 c0 -24 2 -25 75 -25 73 0 75 1 75 25 0 27 18 33 38 13 18 -18
16 -212 -2 -227 -9 -8 -51 -11 -122 -9 l-109 3 -3 109 c-3 124 -1 136 28 136
15 0 20 -7 20 -25z m130 10 c0 -12 -13 -15 -60 -15 -47 0 -60 3 -60 15 0 12
13 15 60 15 47 0 60 -3 60 -15z"/>
<path d="M135 153 c-4 -12 -14 -24 -24 -26 -15 -4 -15 -5 0 -6 9 0 20 -11 24
-23 l8 -23 4 22 c2 12 12 24 21 26 16 4 16 5 0 6 -9 0 -19 11 -21 24 l-4 22
-8 -22z"/>
</g>
</svg>
