<?xml version="1.0" standalone="no"?>
<!DOCTYPE svg PUBLIC "-//W3C//DTD SVG 20010904//EN"
 "http://www.w3.org/TR/2001/REC-SVG-20010904/DTD/svg10.dtd">
<svg version="1.0" xmlns="http://www.w3.org/2000/svg"
 width="1920.000000pt" height="1920.000000pt" viewBox="0 0 1920.000000 1920.000000"
 preserveAspectRatio="xMidYMid meet">

<g transform="translate(0.000000,1920.000000) scale(0.100000,-0.100000)"
fill="#000000" stroke="none">
<path d="M7215 10113 c-200 -24 -376 -171 -435 -361 -25 -80 -27 -215 -4 -293
47 -161 170 -292 329 -351 48 -17 82 -22 165 -22 159 -1 256 39 365 149 110
110 155 216 155 365 0 144 -48 260 -149 361 -118 118 -268 172 -426 152z m135
-372 c44 -23 76 -69 85 -122 9 -51 -26 -125 -74 -156 -40 -27 -117 -31 -161
-8 -40 20 -80 76 -87 119 -6 41 17 114 45 139 54 49 132 60 192 28z"/>
<path d="M9513 10109 c-275 -46 -467 -311 -425 -587 46 -298 338 -496 631
-427 294 70 469 386 371 671 -28 81 -63 137 -125 198 -68 69 -144 111 -241
136 -82 21 -127 23 -211 9z m175 -376 c54 -35 76 -80 70 -148 -8 -96 -74 -151
-173 -143 -60 5 -95 27 -124 79 -83 145 87 303 227 212z"/>
<path d="M11848 10110 c-208 -35 -370 -181 -423 -381 -19 -71 -19 -190 0 -264
41 -155 160 -286 320 -351 62 -25 82 -28 180 -28 125 0 190 18 280 78 154 103
235 254 235 436 0 149 -50 268 -154 368 -122 118 -280 168 -438 142z m170
-376 c43 -32 74 -101 69 -153 -15 -138 -201 -194 -286 -85 -64 82 -39 202 51
248 43 22 129 17 166 -10z"/>
</g>
</svg>
