<?xml version="1.0" standalone="no"?>
<!DOCTYPE svg PUBLIC "-//W3C//DTD SVG 20010904//EN"
 "http://www.w3.org/TR/2001/REC-SVG-20010904/DTD/svg10.dtd">
<svg version="1.0" xmlns="http://www.w3.org/2000/svg"
 width="1920.000000pt" height="1920.000000pt" viewBox="0 0 1920.000000 1920.000000"
 preserveAspectRatio="xMidYMid meet">

<g transform="translate(0.000000,1920.000000) scale(0.100000,-0.100000)"
fill="#000000" stroke="none">
<path d="M7204 10110 c-200 -29 -366 -169 -424 -359 -25 -79 -27 -215 -4 -292
27 -91 73 -165 143 -232 98 -92 192 -134 321 -144 148 -11 290 44 401 156 250
252 177 672 -145 826 -104 49 -181 61 -292 45z m169 -383 c43 -32 72 -102 63
-149 -28 -150 -208 -189 -300 -65 -16 21 -21 43 -21 86 0 101 69 165 172 158
37 -3 61 -11 86 -30z"/>
<path d="M9527 10110 c-159 -21 -314 -131 -386 -274 -17 -33 -39 -98 -48 -143
-23 -109 -9 -212 43 -320 83 -173 273 -293 464 -293 191 0 381 120 464 292 87
181 67 378 -54 539 -111 148 -298 225 -483 199z m158 -375 c51 -29 75 -75 75
-142 0 -59 -24 -102 -75 -133 -29 -18 -47 -22 -94 -18 -65 5 -100 25 -130 79
-82 143 81 298 224 214z"/>
<path d="M11854 10110 c-259 -38 -444 -253 -444 -515 0 -138 50 -256 149 -356
111 -112 253 -167 401 -156 129 10 223 52 321 144 108 102 159 221 159 373 0
149 -44 256 -149 361 -76 76 -162 124 -260 145 -72 15 -99 15 -177 4z m140
-364 c18 -8 46 -31 62 -52 24 -31 29 -47 29 -95 0 -65 -18 -98 -75 -136 -39
-27 -116 -31 -160 -8 -87 45 -112 169 -50 247 41 53 126 72 194 44z"/>
</g>
</svg>
