<?xml version="1.0" standalone="no"?>
<!DOCTYPE svg PUBLIC "-//W3C//DTD SVG 20010904//EN"
 "http://www.w3.org/TR/2001/REC-SVG-20010904/DTD/svg10.dtd">
<svg version="1.0" xmlns="http://www.w3.org/2000/svg"
 width="1920.000000pt" height="1920.000000pt" viewBox="0 0 1920.000000 1920.000000"
 preserveAspectRatio="xMidYMid meet">

<g transform="translate(0.000000,1920.000000) scale(0.100000,-0.100000)"
fill="#000000" stroke="none">
<path d="M9440 14243 c-1125 -63 -1874 -798 -2050 -2010 -128 -884 109 -1921
586 -2560 129 -172 366 -389 507 -463 l47 -25 0 -166 0 -165 -52 -13 c-29 -8
-195 -54 -368 -103 -1503 -427 -2199 -768 -2619 -1283 -357 -436 -495 -973
-518 -1997 -6 -276 -4 -311 11 -352 19 -49 71 -101 114 -113 15 -5 779 -8
1697 -8 l1670 0 43 25 c142 81 119 286 -37 338 -25 9 -440 12 -1582 12 l-1549
0 0 28 c0 103 23 524 35 650 61 617 209 995 510 1298 416 420 1098 711 2695
1149 112 31 219 65 237 76 17 11 42 37 55 57 23 36 23 43 26 367 2 229 0 343
-9 372 -16 58 -58 97 -156 143 -732 343 -1188 1754 -937 2900 164 746 610
1247 1260 1411 180 45 325 62 544 62 465 0 826 -110 1136 -344 373 -282 623
-760 709 -1356 34 -236 35 -643 1 -888 -93 -678 -342 -1249 -688 -1581 -99
-95 -169 -144 -294 -207 -98 -49 -137 -86 -154 -145 -8 -25 -10 -148 -8 -367
3 -324 3 -331 26 -367 13 -20 38 -46 57 -58 19 -12 141 -50 272 -86 1141 -312
1797 -549 2233 -810 179 -106 287 -190 420 -323 305 -305 453 -682 515 -1303
12 -122 35 -548 35 -655 l0 -23 -1549 0 c-1142 0 -1557 -3 -1582 -12 -53 -17
-88 -46 -110 -90 -46 -89 -13 -199 73 -248 l43 -25 1670 0 c919 0 1682 3 1697
8 43 12 95 64 114 113 15 41 17 76 11 347 -20 915 -130 1423 -397 1836 -350
540 -951 895 -2171 1280 -241 76 -953 281 -975 281 -11 0 -14 33 -14 168 l0
169 28 12 c134 61 379 283 521 471 306 407 513 959 598 1590 26 194 26 761 0
935 -66 440 -181 782 -365 1079 -287 464 -695 766 -1212 896 -249 63 -526 89
-800 73z"/>
<path d="M9051 8269 c-46 -18 -84 -53 -102 -93 -17 -38 -19 -73 -19 -453 l0
-413 -390 0 c-246 0 -408 -4 -441 -11 -66 -14 -121 -67 -137 -132 -16 -61 -17
-1015 -1 -1070 13 -47 63 -106 106 -123 25 -11 121 -14 448 -14 l415 0 0 -415
c0 -331 3 -422 14 -448 16 -39 61 -82 99 -96 39 -15 1075 -15 1114 0 38 14 83
57 99 96 11 26 14 117 14 448 l0 415 415 0 c327 0 423 3 448 14 43 17 93 76
106 123 16 55 15 1009 -1 1070 -16 65 -71 118 -137 132 -33 7 -195 11 -441 11
l-390 0 0 413 c0 470 0 471 -81 524 l-43 28 -535 2 c-323 1 -545 -2 -560 -8z
m849 -761 c0 -263 4 -417 11 -443 16 -58 75 -110 139 -124 32 -7 196 -11 440
-11 l390 0 0 -300 0 -300 -414 0 c-269 0 -425 -4 -443 -11 -40 -15 -82 -57
-104 -104 -17 -37 -19 -72 -19 -447 l0 -408 -300 0 -300 0 0 408 c0 375 -2
410 -19 447 -22 47 -64 89 -104 104 -18 7 -174 11 -443 11 l-414 0 0 300 0
300 390 0 c244 0 408 4 440 11 64 14 123 66 139 124 7 26 11 180 11 443 l0
402 300 0 300 0 0 -402z"/>
</g>
</svg>
