<?xml version="1.0" standalone="no"?>
<!DOCTYPE svg PUBLIC "-//W3C//DTD SVG 20010904//EN"
 "http://www.w3.org/TR/2001/REC-SVG-20010904/DTD/svg10.dtd">
<svg version="1.0" xmlns="http://www.w3.org/2000/svg"
 width="1280.000000pt" height="1280.000000pt" viewBox="0 0 1280.000000 1280.000000"
 preserveAspectRatio="xMidYMid meet">

<g transform="translate(0.000000,1280.000000) scale(0.100000,-0.100000)"
fill="#000000" stroke="none">
<path d="M3381 9472 c-19 -10 -43 -34 -53 -53 -17 -32 -18 -147 -18 -3019 0
-2872 1 -2987 18 -3019 10 -19 34 -43 53 -53 32 -17 147 -18 3019 -18 2872 0
2987 1 3019 18 19 10 43 34 53 53 17 32 18 147 18 3019 0 2872 -1 2987 -18
3019 -10 19 -34 43 -53 53 -32 17 -147 18 -3019 18 -2872 0 -2987 -1 -3019
-18z m5859 -2627 l0 -2395 -2840 0 -2840 0 0 2395 0 2395 2840 0 2840 0 0
-2395z m0 -2965 l0 -320 -2840 0 -2840 0 0 320 0 320 2840 0 2840 0 0 -320z"/>
<path d="M6820 7985 c-235 -53 -422 -252 -466 -496 -27 -148 -9 -277 59 -419
32 -69 55 -100 121 -165 88 -87 164 -131 278 -162 89 -24 292 -24 373 1 228
68 380 238 429 478 19 93 20 158 2 258 -42 235 -192 411 -413 486 -98 33 -279
42 -383 19z m338 -270 c80 -36 161 -121 193 -202 32 -82 32 -233 0 -315 -51
-130 -171 -215 -320 -225 -226 -16 -393 108 -432 320 -29 159 41 329 167 403
70 41 129 54 234 51 80 -3 105 -8 158 -32z"/>
<path d="M5685 7106 c-16 -7 -64 -49 -105 -92 -42 -44 -429 -448 -860 -898
-432 -451 -791 -828 -799 -839 -20 -28 -18 -97 4 -130 40 -61 -148 -57 2475
-57 2612 0 2436 -4 2474 54 19 29 21 102 3 132 -7 12 -268 294 -581 627 -612
653 -598 640 -672 614 -22 -8 -150 -120 -355 -311 l-321 -299 -48 49 c-27 27
-281 292 -565 589 -284 297 -530 548 -548 558 -37 20 -61 21 -102 3z m789
-1066 l665 -695 -699 -3 c-384 -1 -1017 -1 -1406 0 l-708 3 704 733 703 733
38 -38 c21 -21 337 -351 703 -733z m1596 -260 l407 -435 -493 -3 -492 -2 -119
122 c-65 68 -149 155 -186 193 l-66 71 262 246 c144 136 266 246 271 245 4 -2
192 -198 416 -437z"/>
</g>
</svg>
