<?xml version="1.0" encoding="UTF-8" standalone="no"?>
<svg
   version="1.0"
   width="1280.000000pt"
   height="1280.000000pt"
   viewBox="0 0 1280.000000 1280.000000"
   preserveAspectRatio="xMidYMid meet"
   id="svg61"
   sodipodi:docname="PhotosBlue1.svg"
   inkscape:version="1.1 (c68e22c387, 2021-05-23)"
   xmlns:inkscape="http://www.inkscape.org/namespaces/inkscape"
   xmlns:sodipodi="http://sodipodi.sourceforge.net/DTD/sodipodi-0.dtd"
   xmlns="http://www.w3.org/2000/svg"
   xmlns:svg="http://www.w3.org/2000/svg">
  <defs
     id="defs65" />
  <sodipodi:namedview
     id="namedview63"
     pagecolor="#ffffff"
     bordercolor="#666666"
     borderopacity="1.0"
     inkscape:pageshadow="2"
     inkscape:pageopacity="0.0"
     inkscape:pagecheckerboard="0"
     inkscape:document-units="pt"
     showgrid="false"
     inkscape:zoom="0.23789063"
     inkscape:cx="201.7734"
     inkscape:cy="762.95566"
     inkscape:window-width="1920"
     inkscape:window-height="1001"
     inkscape:window-x="-9"
     inkscape:window-y="-9"
     inkscape:window-maximized="1"
     inkscape:current-layer="g109" />
  <g
     transform="matrix(0.1,0,0,-0.1,0,1280)"
     fill="#000000"
     stroke="none"
     id="g59">
    <g
       id="g109"
       transform="rotate(-180,6400,6400)">
      <path
         d="m 3381,9472 c -19,-10 -43,-34 -53,-53 -17,-32 -18,-147 -18,-3019 0,-2872 1,-2987 18,-3019 10,-19 34,-43 53,-53 32,-17 147,-18 3019,-18 2872,0 2987,1 3019,18 19,10 43,34 53,53 17,32 18,147 18,3019 0,2872 -1,2987 -18,3019 -10,19 -34,43 -53,53 -32,17 -147,18 -3019,18 -2872,0 -2987,-1 -3019,-18 z M 9240,6845 V 4450 H 6400 3560 v 2395 2395 h 2840 2840 z m 0,-2965 V 3560 H 6400 3560 v 320 320 h 2840 2840 z"
         id="path103" />
      <path
         d="m 514.58127,1301.2562 c -235,-53 -422.000004,-252 -466.000004,-496.00002 -27,-148 -9,-277 59.000004,-419 32,-69 55,-100 121,-165 88,-87 164,-131.00002 278,-162.00002 89,-24 292,-24 373,1 228.00003,68.00002 380.00003,238.00002 429.00003,478.00002 19,93 20,158 2,258 -42,235.00002 -192,411.00002 -413.00003,486.00002 -98,33 -279,42 -383,19 z m 338,-270 c 80,-36.00002 161.00003,-121.00002 193.00003,-202.00002 32,-82 32,-233 0,-315 -51.00003,-130 -171.00003,-215 -320.00003,-225 -226,-16 -393,108 -432,320 -29,159 41,329 167,403.00002 70,41 129,54 234,51 80,-3 105,-8 158,-32 z"
         id="path105" />
      <path
         d="m 5685,7106 c -16,-7 -64,-49 -105,-92 -42,-44 -429,-448 -860,-898 -432,-451 -791,-828 -799,-839 -20,-28 -18,-97 4,-130 40,-61 -148,-57 2475,-57 2612,0 2436,-4 2474,54 19,29 21,102 3,132 -7,12 -268,294 -581,627 -612,653 -598,640 -672,614 -22,-8 -150,-120 -355,-311 l -321,-299 -48,49 c -27,27 -281,292 -565,589 -284,297 -530,548 -548,558 -37,20 -61,21 -102,3 z m 789,-1066 665,-695 -699,-3 c -384,-1 -1017,-1 -1406,0 l -708,3 704,733 703,733 38,-38 c 21,-21 337,-351 703,-733 z m 1596,-260 407,-435 -493,-3 -492,-2 -119,122 c -65,68 -149,155 -186,193 l -66,71 262,246 c 144,136 266,246 271,245 4,-2 192,-198 416,-437 z"
         id="path107" />
    </g>
  </g>
</svg>
