<?xml version="1.0" standalone="no"?>
<!DOCTYPE svg PUBLIC "-//W3C//DTD SVG 20010904//EN"
 "http://www.w3.org/TR/2001/REC-SVG-20010904/DTD/svg10.dtd">
<svg version="1.0" xmlns="http://www.w3.org/2000/svg"
 width="1920.000000pt" height="1920.000000pt" viewBox="0 0 1920.000000 1920.000000"
 preserveAspectRatio="xMidYMid meet">

<g transform="translate(0.000000,1920.000000) scale(0.100000,-0.100000)"
fill="#000000" stroke="none">
<path d="M9180 13764 c-184 -12 -344 -29 -475 -50 -1526 -249 -2780 -1402
-3155 -2902 -83 -334 -114 -591 -114 -957 0 -368 29 -616 111 -945 373 -1506
1616 -2658 3143 -2914 874 -147 1779 7 2544 432 231 128 481 302 665 462 l83
72 757 -755 c690 -690 760 -756 801 -767 79 -22 160 11 198 80 29 51 35 93 21
142 -11 38 -98 129 -767 799 l-755 757 64 73 c455 523 767 1173 893 1859 46
248 60 414 60 705 0 291 -14 457 -60 705 -243 1322 -1145 2426 -2394 2928
-325 130 -674 218 -1026 256 -138 15 -487 27 -594 20z m446 -364 c711 -58
1382 -323 1939 -766 145 -116 382 -349 509 -500 448 -536 720 -1172 808 -1889
8 -68 13 -218 13 -390 0 -172 -5 -322 -13 -390 -102 -835 -454 -1560 -1038
-2137 -570 -563 -1246 -891 -2069 -1004 -185 -26 -675 -26 -860 0 -696 95
-1275 341 -1805 764 -131 105 -372 343 -489 482 -445 530 -709 1136 -807 1855
-26 185 -26 675 0 860 72 527 221 960 476 1389 161 271 335 490 576 727 463
452 1005 753 1639 909 355 87 756 119 1121 90z"/>
</g>
</svg>
