<?xml version="1.0" standalone="no"?>
<!DOCTYPE svg PUBLIC "-//W3C//DTD SVG 20010904//EN"
 "http://www.w3.org/TR/2001/REC-SVG-20010904/DTD/svg10.dtd">
<svg version="1.0" xmlns="http://www.w3.org/2000/svg"
 width="1280.000000pt" height="1280.000000pt" viewBox="0 0 1280.000000 1280.000000"
 preserveAspectRatio="xMidYMid meet">

<g transform="translate(0.000000,1280.000000) scale(0.100000,-0.100000)"
fill="#000000" stroke="none">
<path d="M5400 9334 c-203 -68 -417 -167 -444 -206 -26 -36 -20 -97 18 -179
48 -104 70 -213 70 -339 0 -58 -3 -117 -7 -132 -5 -18 -43 -53 -124 -114 -133
-99 -358 -319 -448 -438 -33 -43 -72 -93 -86 -110 l-27 -30 -123 0 c-146 0
-231 18 -360 75 -155 69 -177 59 -269 -134 -83 -173 -141 -327 -147 -387 -6
-63 21 -102 84 -125 153 -55 259 -122 354 -221 93 -98 92 -96 74 -206 -36
-227 -38 -510 -4 -755 14 -94 12 -99 -70 -187 -83 -88 -230 -179 -358 -220
-54 -18 -84 -48 -96 -95 -16 -63 177 -534 235 -575 35 -25 98 -20 169 14 107
50 210 72 339 73 63 1 127 -2 142 -6 18 -5 53 -43 114 -124 108 -145 312 -351
459 -464 l110 -85 8 -55 c10 -69 0 -206 -20 -289 -9 -36 -33 -104 -55 -151
-68 -154 -55 -179 139 -271 172 -82 324 -140 383 -145 63 -6 102 21 125 84 55
153 122 259 221 354 98 93 96 92 206 74 231 -37 504 -38 755 -3 82 11 83 11
122 -17 118 -81 234 -253 290 -427 15 -47 59 -79 108 -80 82 -1 522 183 556
233 26 36 21 98 -13 170 -50 107 -72 210 -73 339 -1 63 2 127 6 141 4 17 37
49 94 92 190 140 359 306 506 497 l73 95 55 8 c129 18 319 -16 459 -82 130
-62 162 -42 252 146 78 163 139 322 145 379 9 76 -23 112 -132 148 -119 38
-298 172 -369 274 l-27 39 16 96 c36 224 37 512 3 754 -11 82 -11 83 17 122
81 118 253 234 427 290 47 15 79 59 80 108 1 82 -183 522 -233 556 -37 27 -98
21 -180 -17 -104 -48 -213 -70 -339 -70 -58 0 -117 3 -132 7 -18 5 -53 42
-114 124 -99 133 -318 357 -438 448 -43 33 -93 72 -110 86 l-30 27 0 123 c0
146 18 231 75 360 69 155 59 177 -134 269 -162 78 -353 150 -396 150 -67 0
-103 -36 -135 -135 -38 -118 -172 -298 -274 -369 l-39 -27 -95 16 c-229 37
-526 38 -745 4 -39 -6 -82 -9 -95 -6 -35 9 -142 109 -192 181 -51 70 -106 178
-130 253 -19 56 -50 86 -99 95 -17 3 -66 -8 -127 -28z m64 -301 c73 -150 207
-305 345 -401 83 -58 92 -60 219 -37 234 41 538 39 767 -6 55 -10 110 -19 121
-19 36 0 174 98 260 184 79 78 179 218 209 290 l15 35 37 -13 c94 -34 178 -76
177 -88 -1 -7 -14 -53 -28 -102 -47 -160 -55 -323 -24 -491 14 -79 30 -105 91
-146 183 -122 407 -339 537 -519 118 -162 124 -168 205 -185 170 -35 336 -28
513 21 51 15 95 24 98 22 6 -7 84 -198 84 -207 0 -4 -26 -19 -57 -35 -150 -73
-305 -207 -401 -345 -58 -83 -60 -92 -37 -220 39 -221 39 -517 0 -732 -29
-159 -29 -162 -6 -206 29 -58 127 -179 197 -242 64 -59 201 -153 258 -176 l35
-15 -13 -37 c-34 -94 -76 -178 -88 -177 -7 1 -53 14 -102 28 -160 47 -323 55
-491 24 -79 -14 -105 -30 -146 -91 -122 -183 -339 -407 -519 -537 -162 -118
-168 -124 -185 -205 -35 -168 -27 -345 21 -512 13 -46 24 -87 24 -92 0 -8
-189 -91 -207 -91 -5 0 -22 26 -37 58 -73 149 -217 316 -351 405 -78 53 -89
54 -213 32 -238 -41 -525 -39 -774 7 -137 25 -141 24 -257 -62 -125 -93 -228
-213 -313 -367 l-34 -62 -85 35 c-46 20 -95 40 -108 45 -16 7 -21 14 -16 27
69 178 88 392 53 587 -14 79 -30 105 -91 146 -183 122 -407 339 -537 519 -118
163 -123 168 -210 187 -52 11 -120 17 -220 16 -126 0 -158 -4 -245 -28 -55
-15 -109 -29 -121 -32 -18 -4 -26 8 -62 96 -23 55 -42 104 -42 108 0 5 26 22
58 37 148 73 305 208 400 345 58 83 60 92 37 219 -41 238 -39 525 7 774 18
101 19 120 8 149 -22 53 -122 179 -195 248 -71 66 -207 161 -269 186 l-35 15
13 37 c34 94 76 178 88 177 7 -1 53 -14 103 -28 157 -46 321 -54 490 -24 79
14 105 30 146 91 122 183 339 407 519 537 163 118 168 124 185 205 35 174 28
336 -21 513 -15 51 -24 95 -22 98 7 6 191 82 203 83 6 1 23 -25 39 -56z"/>
<path d="M6206 7514 c-241 -44 -449 -156 -622 -336 -162 -169 -258 -359 -299
-592 -38 -221 1 -492 101 -688 115 -227 335 -435 565 -535 348 -150 750 -116
1069 92 103 67 255 220 325 328 248 383 246 863 -7 1247 -54 83 -182 216 -267
279 -242 180 -572 258 -865 205z m340 -235 c434 -76 744 -444 744 -885 0 -429
-324 -806 -750 -874 -539 -85 -1030 335 -1030 880 0 425 299 788 720 875 80
16 236 19 316 4z"/>
</g>
</svg>
