<?xml version="1.0" standalone="no"?>
<!DOCTYPE svg PUBLIC "-//W3C//DTD SVG 20010904//EN"
 "http://www.w3.org/TR/2001/REC-SVG-20010904/DTD/svg10.dtd">
<svg version="1.0" xmlns="http://www.w3.org/2000/svg"
 width="40.000000pt" height="40.000000pt" viewBox="0 0 40.000000 40.000000"
 preserveAspectRatio="xMidYMid meet">

<g transform="translate(0.000000,40.000000) scale(0.100000,-0.100000)"
fill="#000000" stroke="none">
<path d="M155 300 c-48 -49 -38 -67 10 -20 l35 34 35 -34 c19 -18 38 -30 42
-27 6 7 -64 87 -77 87 -3 0 -23 -18 -45 -40z"/>
<path d="M120 142 c0 -4 18 -26 40 -47 l40 -39 42 41 c23 23 39 46 35 49 -4 4
-23 -8 -42 -26 l-35 -34 -33 32 c-33 32 -47 39 -47 24z"/>
</g>
</svg>
